{"asset":{"version":"2.0","generator":"Blockbench 4.12.6 glTF exporter"},"scenes":[{"nodes":[6],"name":"blockbench_export"}],"scene":0,"nodes":[{"translation":[-0.11875000000000008,0.15314313019332698,-0.001250000000000006],"name":"top","mesh":0},{"translation":[-0.11875000000000008,-0.1549288444790412,-0.0012500000000000102],"name":"bot","mesh":1},{"translation":[-0.11875000000000005,0.0005952380952379821,-0.0012500000000000074],"name":"black","mesh":2},{"translation":[0.16875000000000004,0.0005952380952379821,0.0018750000000000001],"name":"black circle","mesh":3},{"translation":[0.1875000000000002,0.0005952380952379821,0.001875000000000011],"name":"white circle","mesh":4},{"translation":[0.11875000000000005,0.34464285714285725,0.0012499999999999822],"name":"Poké Ball","children":[0,1,2,3,4]},{"children":[5]}],"bufferViews":[{"buffer":0,"byteOffset":0,"byteLength":1512,"target":34962,"byteStride":12},{"buffer":0,"byteOffset":1512,"byteLength":1512,"target":34962,"byteStride":12},{"buffer":0,"byteOffset":3024,"byteLength":1008,"target":34962,"byteStride":8},{"buffer":0,"byteOffset":4032,"byteLength":348,"target":34963},{"buffer":0,"byteOffset":4380,"byteLength":1512,"target":34962,"byteStride":12},{"buffer":0,"byteOffset":5892,"byteLength":1512,"target":34962,"byteStride":12},{"buffer":0,"byteOffset":7404,"byteLength":1008,"target":34962,"byteStride":8},{"buffer":0,"byteOffset":8412,"byteLength":348,"target":34963},{"buffer":0,"byteOffset":8760,"byteLength":1032,"target":34962,"byteStride":12},{"buffer":0,"byteOffset":9792,"byteLength":1032,"target":34962,"byteStride":12},{"buffer":0,"byteOffset":10824,"byteLength":688,"target":34962,"byteStride":8},{"buffer":0,"byteOffset":11512,"byteLength":228,"target":34963},{"buffer":0,"byteOffset":11740,"byteLength":1032,"target":34962,"byteStride":12},{"buffer":0,"byteOffset":12772,"byteLength":1032,"target":34962,"byteStride":12},{"buffer":0,"byteOffset":13804,"byteLength":688,"target":34962,"byteStride":8},{"buffer":0,"byteOffset":14492,"byteLength":228,"target":34963},{"buffer":0,"byteOffset":14720,"byteLength":1032,"target":34962,"byteStride":12},{"buffer":0,"byteOffset":15752,"byteLength":1032,"target":34962,"byteStride":12},{"buffer":0,"byteOffset":16784,"byteLength":688,"target":34962,"byteStride":8},{"buffer":0,"byteOffset":17472,"byteLength":228,"target":34963}],"buffers":[{"byteLength":17700,"uri":"data:application/octet-stream;base64,"}],"accessors":[{"bufferView":0,"componentType":5126,"count":126,"max":[0.2980365455150604,0.18971401453018188,0.3124881088733673],"min":[-0.2980365455150604,-0.1227850466966629,-0.3124881088733673],"type":"VEC3"},{"bufferView":1,"componentType":5126,"count":126,"max":[0.9999619126319885,0.9510565400123596,0.9537169337272644],"min":[-0.9999619126319885,-1,-0.9537169337272644],"type":"VEC3"},{"bufferView":2,"componentType":5126,"count":126,"max":[0.4701593816280365,0.46553176641464233],"min":[0,0],"type":"VEC2"},{"bufferView":3,"componentType":5123,"count":174,"max":[125],"min":[0],"type":"SCALAR"},{"bufferView":4,"componentType":5126,"count":126,"max":[0.2980365455150604,0.1227850466966629,0.3124881088733673],"min":[-0.2980365455150604,-0.18971401453018188,-0.3124881088733673],"type":"VEC3"},{"bufferView":5,"componentType":5126,"count":126,"max":[0.9999619126319885,1,0.9537169337272644],"min":[-0.9999619126319885,-0.9510565400123596,-0.9537169337272644],"type":"VEC3"},{"bufferView":6,"componentType":5126,"count":126,"max":[0.484375,0.47867655754089355],"min":[0.006403124891221523,0],"type":"VEC2"},{"bufferView":7,"componentType":5123,"count":174,"max":[125],"min":[0],"type":"SCALAR"},{"bufferView":8,"componentType":5126,"count":86,"max":[0.2692742645740509,0.02976190485060215,0.29436755180358887],"min":[-0.2692742645740509,-0.032738097012043,-0.29436755180358887],"type":"VEC3"},{"bufferView":9,"componentType":5126,"count":86,"max":[0.9999836087226868,1,0.9537169337272644],"min":[-0.9999836087226868,-1,-0.9537169337272644],"type":"VEC3"},{"bufferView":10,"componentType":5126,"count":86,"max":[0.5570828318595886,0.4375],"min":[0,0],"type":"VEC2"},{"bufferView":11,"componentType":5123,"count":114,"max":[85],"min":[0],"type":"SCALAR"},{"bufferView":12,"componentType":5126,"count":86,"max":[0.02976190485060215,0.09375,0.09375],"min":[-0.032738097012043,-0.09375,-0.09375],"type":"VEC3"},{"bufferView":13,"componentType":5126,"count":86,"max":[1,0.955422580242157,1],"min":[-1,-0.955422580242157,-1],"type":"VEC3"},{"bufferView":14,"componentType":5126,"count":86,"max":[0.234375,0.234375],"min":[0,0],"type":"VEC2"},{"bufferView":15,"componentType":5123,"count":114,"max":[85],"min":[0],"type":"SCALAR"},{"bufferView":16,"componentType":5126,"count":86,"max":[0.02976190485060215,0.0625,0.0625],"min":[-0.032738097012043,-0.0625,-0.0625],"type":"VEC3"},{"bufferView":17,"componentType":5126,"count":86,"max":[1,0.955422580242157,1],"min":[-1,-0.955422580242157,-1],"type":"VEC3"},{"bufferView":18,"componentType":5126,"count":86,"max":[0.25,0.28125],"min":[0,0],"type":"VEC2"},{"bufferView":19,"componentType":5123,"count":114,"max":[85],"min":[0],"type":"SCALAR"}],"materials":[{"pbrMetallicRoughness":{"metallicFactor":0,"roughnessFactor":1,"baseColorTexture":{"index":0}},"alphaMode":"MASK","alphaCutoff":0.05,"doubleSided":true}],"textures":[{"sampler":0,"source":0,"name":"texture"}],"samplers":[{"magFilter":9728,"minFilter":9728,"wrapS":33071,"wrapT":33071}],"images":[{"mimeType":"image/png","uri":"data:image/png;base64,"}],"meshes":[{"primitives":[{"mode":4,"attributes":{"POSITION":0,"NORMAL":1,"TEXCOORD_0":2},"indices":3,"material":0}]},{"primitives":[{"mode":4,"attributes":{"POSITION":4,"NORMAL":5,"TEXCOORD_0":6},"indices":7,"material":0}]},{"primitives":[{"mode":4,"attributes":{"POSITION":8,"NORMAL":9,"TEXCOORD_0":10},"indices":11,"material":0}]},{"primitives":[{"mode":4,"attributes":{"POSITION":12,"NORMAL":13,"TEXCOORD_0":14},"indices":15,"material":0}]},{"primitives":[{"mode":4,"attributes":{"POSITION":16,"NORMAL":17,"TEXCOORD_0":18},"indices":19,"material":0}]}]}